<svg width="57" height="62" viewBox="0 0 57 62" fill="none" xmlns="http://www.w3.org/2000/svg">
<circle cx="38.3998" cy="43.3998" r="18.6" fill="url(#paint0_linear_1755_330)"/>
<path d="M3.29003 51.5627C3.73359 51.5627 4.17234 51.4708 4.57857 51.2927C4.9848 51.1146 5.34968 50.8542 5.65015 50.5279C6.54577 50.7712 7.47099 50.8881 8.39898 50.8752C10.8853 50.8752 13.9538 50.2031 17.3318 48.9582C17.6233 50.048 17.9448 51.087 18.2956 52.0668C20.2815 57.6136 23.017 60.6684 25.9983 60.6684C28.9795 60.6684 31.7151 57.6136 33.701 52.0668C34.0509 51.0897 34.3715 50.0535 34.6624 48.9668C34.8623 49.0405 35.0626 49.1153 35.2612 49.1847C38.4626 50.3141 41.2674 50.885 43.5561 50.885C44.4666 50.8963 45.3744 50.7848 46.2551 50.5536C46.5779 50.8943 46.9713 51.1602 47.4077 51.3328C47.8442 51.5054 48.3131 51.5804 48.7816 51.5525C49.2502 51.5246 49.7069 51.3946 50.1198 51.1716C50.5328 50.9485 50.8919 50.6378 51.1721 50.2613C51.4522 49.8847 51.6466 49.4514 51.7416 48.9918C51.8366 48.5322 51.8298 48.0573 51.7219 47.6006C51.6139 47.1438 51.4073 46.7162 51.1166 46.3478C50.8259 45.9793 50.4581 45.6789 50.039 45.4676C49.907 41.9333 47.0395 37.1311 42.356 32.22C43.9048 30.6149 45.331 28.8959 46.6228 27.0775C49.9994 22.2535 50.9126 18.2534 49.1941 15.8138C48.4148 14.7074 47.1597 13.9982 45.4658 13.706C42.7705 13.2413 39.0397 13.8537 34.6589 15.4717C34.5983 15.2442 34.5378 15.0161 34.4737 14.7925C33.1267 10.0539 31.3045 6.68288 29.1853 4.99266C29.2487 4.53699 29.2136 4.07302 29.0824 3.63207C28.9512 3.19111 28.727 2.78341 28.4249 2.43647C28.1227 2.08954 27.7497 1.81143 27.331 1.6209C26.9122 1.43038 26.4575 1.33187 25.9974 1.33203C25.5374 1.33219 25.0827 1.431 24.6641 1.62181C24.2455 1.81262 23.8726 2.09099 23.5707 2.43813C23.2688 2.78528 23.0449 3.19313 22.914 3.63418C22.7831 4.07522 22.7484 4.53921 22.812 4.99484C21.6061 5.96129 20.5018 7.48501 19.534 9.44976C19.4915 9.53474 19.4662 9.6273 19.4596 9.72211C19.453 9.81691 19.4653 9.91209 19.4957 10.0021C19.5261 10.0922 19.574 10.1753 19.6367 10.2467C19.6994 10.3181 19.7756 10.3764 19.861 10.4182C19.9463 10.46 20.0391 10.4845 20.134 10.4903C20.2288 10.496 20.3239 10.4829 20.4137 10.4517C20.5035 10.4206 20.5862 10.3719 20.657 10.3086C20.7279 10.2453 20.7855 10.1685 20.8266 10.0828C21.5981 8.51213 22.4559 7.26377 23.378 6.41866C23.6747 6.83738 24.0674 7.17891 24.5232 7.41461C24.9791 7.65031 25.4848 7.77333 25.998 7.77335C26.5111 7.77338 27.0168 7.65041 27.4727 7.41475C27.9285 7.17908 28.3213 6.8376 28.618 6.4189C30.5081 8.15054 32.1283 11.5748 33.2877 16.0003C30.7807 17.028 28.3453 18.2225 25.9979 19.5756C23.6505 18.2225 21.2151 17.0281 18.708 16.0006C18.8473 15.4692 18.9929 14.9525 19.145 14.4506C19.1739 14.3561 19.1831 14.2567 19.1719 14.1585C19.1607 14.0603 19.1294 13.9655 19.08 13.88C19.0306 13.7944 18.9641 13.7199 18.8846 13.6612C18.8052 13.6025 18.7145 13.5607 18.6182 13.5386L18.6088 13.5364C18.4314 13.4956 18.2452 13.5234 18.0876 13.6143C17.93 13.7053 17.8127 13.8525 17.7593 14.0265C17.6153 14.4968 17.4771 14.9795 17.3447 15.4745C12.9603 13.8539 9.22677 13.2402 6.52941 13.7056C4.83483 13.9978 3.58042 14.707 2.80106 15.8135C1.08274 18.253 1.9959 22.2531 5.37248 27.0771C6.66476 28.897 8.09173 30.6173 9.6414 32.2236C4.98571 37.1072 2.11942 41.8869 1.95885 45.4121C1.28945 45.7165 0.744409 46.2409 0.414351 46.8981C0.0842929 47.5552 -0.0109019 48.3055 0.144593 49.0243C0.300087 49.743 0.696904 50.3869 1.26907 50.8489C1.84124 51.3109 2.55429 51.5631 3.28967 51.5636L3.29003 51.5627ZM25.9979 6.32081C25.648 6.32151 25.3058 6.21838 25.0146 6.02448C24.7234 5.83058 24.4962 5.55464 24.3619 5.23158C24.2276 4.90851 24.1921 4.55286 24.26 4.20964C24.328 3.86643 24.4962 3.55108 24.7434 3.30352C24.9907 3.05596 25.3058 2.88733 25.6489 2.81896C25.992 2.75059 26.3477 2.78557 26.671 2.91947C26.9942 3.05336 27.2705 3.28016 27.4647 3.57113C27.659 3.86211 27.7626 4.20418 27.7624 4.55406C27.762 5.02213 27.5761 5.47098 27.2453 5.80218C26.9146 6.13337 26.466 6.31988 25.9979 6.32081V6.32081ZM17.0888 38.8902C17.9849 39.5852 18.9068 40.2679 19.8544 40.9382C21.4092 42.038 22.9762 43.0625 24.54 44.0069C22.534 45.1252 20.4649 46.1267 18.3433 47.0063C17.7407 44.3327 17.3215 41.621 17.0888 38.8902V38.8902ZM32.3327 51.5774C30.5946 56.4317 28.2857 59.2158 25.9979 59.2158C23.7101 59.2158 21.4013 56.4317 19.6632 51.5774C19.3094 50.5891 18.9863 49.5372 18.6945 48.432C21.2039 47.4052 23.6418 46.2118 25.992 44.8597C28.344 46.2168 30.7851 47.4134 33.2985 48.4413C33.0076 49.5437 32.6849 50.592 32.3327 51.5774V51.5774ZM33.6505 47.0153C31.5229 46.138 29.4493 45.1348 27.4408 44.0111C29.0043 43.0699 30.5772 42.0443 32.1415 40.9382C33.0877 40.269 34.0096 39.5863 34.9071 38.8902C34.6741 41.6241 34.2543 44.3388 33.6505 47.0153V47.0153ZM50.3543 48.3425C50.3536 48.6913 50.2495 49.0321 50.0552 49.3217C49.8609 49.6114 49.5851 49.837 49.2627 49.97C48.9402 50.103 48.5856 50.1374 48.2436 50.0689C47.9016 50.0004 47.5875 49.8321 47.3411 49.5852C47.0947 49.3383 46.9271 49.0239 46.8593 48.6818C46.7915 48.3396 46.8267 47.9851 46.9603 47.6629C47.0939 47.3407 47.3201 47.0654 47.6101 46.8717C47.9002 46.6779 48.2412 46.5746 48.59 46.5746C49.0582 46.5755 49.507 46.7622 49.8378 47.0937C50.1686 47.4251 50.3543 47.8743 50.3543 48.3425ZM44.076 36.3838C46.7632 39.7541 48.3264 42.8129 48.5609 45.1228C48.0636 45.1275 47.5741 45.2474 47.1309 45.473C46.6877 45.6987 46.3028 46.024 46.0065 46.4234C45.7101 46.8228 45.5103 47.2854 45.4228 47.775C45.3352 48.2646 45.3624 48.7678 45.502 49.2452C43.2059 49.7378 39.7899 49.243 35.7442 47.8163C35.5033 47.7315 35.2599 47.6414 35.0177 47.5507C35.7614 44.2945 36.2447 40.9842 36.4631 37.6513C38.2164 36.2164 39.8516 34.7439 41.3391 33.2618C42.3361 34.3081 43.2544 35.3534 44.076 36.3838V36.3838ZM36.5759 28.78C37.9041 29.9111 39.1601 31.0654 40.3229 32.224C39.1625 33.3809 37.9084 34.533 36.5754 35.6661C36.6252 34.5309 36.6502 33.3819 36.6505 32.2191C36.6505 31.0591 36.6256 29.9127 36.5759 28.78ZM45.2191 15.1377C46.5195 15.3619 47.4574 15.8708 48.0064 16.6502C49.3264 18.5243 48.3884 22.021 45.4325 26.2438C44.1927 27.9895 42.8246 29.6404 41.3395 31.1828C39.8622 29.7096 38.2282 28.2342 36.4617 26.7871C36.2444 23.4518 35.7603 20.1393 35.0139 16.8814C39.0908 15.3528 42.6783 14.6992 45.2191 15.1377V15.1377ZM33.6364 17.4226C34.2374 20.0978 34.6589 22.8103 34.8979 25.5418C34.0072 24.8511 33.0883 24.1704 32.1415 23.4997C30.5888 22.4015 29.0182 21.3749 27.4479 20.4278C29.4508 19.307 31.5171 18.3036 33.6364 17.4224V17.4226ZM25.998 21.2563C27.761 22.2921 29.5404 23.4397 31.3019 24.686C32.5914 25.5981 33.8449 26.5454 35.0492 27.5155C35.146 29.0519 35.197 30.6245 35.197 32.219C35.197 33.8136 35.1486 35.3849 35.0542 36.923C33.8549 37.8871 32.6042 38.8301 31.3019 39.752C29.5404 40.9981 27.7582 42.1447 25.9911 43.1799C24.2264 42.1416 22.4525 40.9963 20.6935 39.7519C19.3946 38.833 18.1438 37.89 16.9413 36.9229C16.8468 35.385 16.7985 33.8125 16.7985 32.2189C16.7985 30.6253 16.8496 29.052 16.9465 27.5157C18.1418 26.5524 19.3937 25.6052 20.6935 24.6859C22.4555 23.4396 24.2349 22.292 25.998 21.2562V21.2563ZM18.3595 17.4223C20.4786 18.3034 22.5447 19.3069 24.5474 20.4276C22.9771 21.3748 21.4065 22.4015 19.8538 23.4995C18.9075 24.1689 17.9886 24.8499 17.097 25.5423C17.3363 22.8105 17.758 20.0978 18.3595 17.4223V17.4223ZM6.56332 26.2436C3.60754 22.0209 2.66943 18.5242 3.98947 16.6501C4.53851 15.8706 5.47626 15.3618 6.77681 15.1375C9.31977 14.6987 12.9098 15.3536 16.9912 16.8842C16.2454 20.1411 15.7591 23.452 15.5367 26.7858C13.7701 28.2329 12.1362 29.7095 10.658 31.1843C9.17226 29.6414 7.80358 27.9899 6.56332 26.2436V26.2436ZM15.4204 35.6658C14.0883 34.5336 12.8352 33.3825 11.6755 32.2268C12.831 31.0747 14.0853 29.9197 15.4219 28.78C15.3718 29.9102 15.3463 31.0565 15.3454 32.219C15.3454 33.3801 15.3704 34.5291 15.4204 35.6658V35.6658ZM10.66 33.2643C12.1467 34.7456 13.7811 36.2173 15.5335 37.6513C15.7517 40.9816 16.2344 44.2894 16.9771 47.5432C12.6492 49.1651 8.8859 49.8091 6.38434 49.223C6.5174 48.7559 6.54303 48.2647 6.4593 47.7863C6.37557 47.3079 6.18465 46.8546 5.90086 46.4604C5.61706 46.0663 5.24774 45.7414 4.82057 45.5103C4.3934 45.2791 3.91946 45.1476 3.43426 45.1257C3.74135 42.0005 6.43484 37.6963 10.66 33.2643ZM3.29003 46.5752C3.63986 46.5744 3.98203 46.6775 4.27325 46.8714C4.56447 47.0652 4.79164 47.3411 4.92601 47.664C5.06038 47.987 5.09591 48.3426 5.0281 48.6858C4.9603 49.029 4.7922 49.3444 4.54509 49.592C4.29798 49.8396 3.98297 50.0083 3.63992 50.0769C3.29687 50.1454 2.9412 50.1106 2.61793 49.9769C2.29467 49.8432 2.01834 49.6166 1.82391 49.3257C1.62948 49.0349 1.5257 48.693 1.5257 48.3431C1.5257 47.8749 1.71146 47.4257 2.04224 47.0943C2.37301 46.7628 2.82177 46.5761 3.29003 46.5752V46.5752Z" fill="#EE1C1F"/>
<path d="M25.9988 36.2792C26.8026 36.2806 27.5887 36.0435 28.2577 35.598C28.9267 35.1524 29.4485 34.5184 29.757 33.7762C30.0656 33.034 30.147 32.217 29.9911 31.4285C29.8351 30.64 29.4487 29.9155 28.8809 29.3466C28.313 28.7778 27.5892 28.3902 26.8009 28.2329C26.0127 28.0756 25.1955 28.1556 24.4528 28.4629C23.7101 28.7701 23.0752 29.2908 22.6285 29.959C22.1818 30.6273 21.9434 31.413 21.9434 32.2167C21.9436 33.2929 22.3708 34.3249 23.1311 35.0865C23.8913 35.8481 24.9227 36.277 25.9988 36.2792ZM25.9988 29.6069C26.5152 29.6055 27.0203 29.7574 27.4504 30.0433C27.8804 30.3291 28.2159 30.7362 28.4145 31.2128C28.6131 31.6895 28.6657 32.2144 28.5659 32.721C28.466 33.2276 28.218 33.6932 27.8534 34.0588C27.4887 34.4244 27.0238 34.6737 26.5175 34.7749C26.0111 34.8762 25.4861 34.8249 25.0089 34.6276C24.5317 34.4303 24.1238 34.0959 23.8367 33.6666C23.5497 33.2374 23.3965 32.7326 23.3965 32.2163C23.3965 31.5255 23.6704 30.8629 24.1583 30.3738C24.6461 29.8848 25.308 29.6091 25.9988 29.6074V29.6069Z" fill="#EE1C1F"/>
<defs>
<linearGradient id="paint0_linear_1755_330" x1="25.9998" y1="26.8665" x2="50.7998" y2="59.9331" gradientUnits="userSpaceOnUse">
<stop offset="0.318372" stop-color="#FFCACB" stop-opacity="0"/>
<stop offset="1" stop-color="#FFCACB"/>
</linearGradient>
</defs>
</svg>
