<svg width="60" height="60" viewBox="0 0 60 60" fill="none" xmlns="http://www.w3.org/2000/svg">
<circle cx="30" cy="30" r="29.5" fill="white" stroke="white"/>
<path d="M39.5156 26.125C39.5156 26.3594 39.5156 26.5469 39.5156 26.7812C39.5156 33.2969 34.5938 40.75 25.5469 40.75C22.7344 40.75 20.1562 39.9531 18 38.5469C18.375 38.5938 18.75 38.6406 19.1719 38.6406C21.4688 38.6406 23.5781 37.8438 25.2656 36.5312C23.1094 36.4844 21.2812 35.0781 20.6719 33.1094C21 33.1562 21.2812 33.2031 21.6094 33.2031C22.0312 33.2031 22.5 33.1094 22.875 33.0156C20.625 32.5469 18.9375 30.5781 18.9375 28.1875V28.1406C19.5938 28.5156 20.3906 28.7031 21.1875 28.75C19.8281 27.8594 18.9844 26.3594 18.9844 24.6719C18.9844 23.7344 19.2188 22.8906 19.6406 22.1875C22.0781 25.1406 25.7344 27.1094 29.8125 27.3438C29.7188 26.9688 29.6719 26.5938 29.6719 26.2188C29.6719 23.5 31.875 21.2969 34.5938 21.2969C36 21.2969 37.2656 21.8594 38.2031 22.8438C39.2812 22.6094 40.3594 22.1875 41.2969 21.625C40.9219 22.7969 40.1719 23.7344 39.1406 24.3438C40.125 24.25 41.1094 23.9688 41.9531 23.5938C41.2969 24.5781 40.4531 25.4219 39.5156 26.125Z" fill="#C9CFD6"/>
</svg>
