<svg width="37" height="37" viewBox="0 0 37 37" fill="none" xmlns="http://www.w3.org/2000/svg">
<circle cx="18.5" cy="18.5" r="18" fill="white" stroke="#C9CFD6"/>
<path d="M24.8438 15.75C24.8438 15.9062 24.8438 16.0312 24.8438 16.1875C24.8438 20.5312 21.5625 25.5 15.5312 25.5C13.6562 25.5 11.9375 24.9688 10.5 24.0312C10.75 24.0625 11 24.0938 11.2812 24.0938C12.8125 24.0938 14.2188 23.5625 15.3438 22.6875C13.9062 22.6562 12.6875 21.7188 12.2812 20.4062C12.5 20.4375 12.6875 20.4688 12.9062 20.4688C13.1875 20.4688 13.5 20.4062 13.75 20.3438C12.25 20.0312 11.125 18.7188 11.125 17.125V17.0938C11.5625 17.3438 12.0938 17.4688 12.625 17.5C11.7188 16.9062 11.1562 15.9062 11.1562 14.7812C11.1562 14.1562 11.3125 13.5938 11.5938 13.125C13.2188 15.0938 15.6562 16.4062 18.375 16.5625C18.3125 16.3125 18.2812 16.0625 18.2812 15.8125C18.2812 14 19.75 12.5312 21.5625 12.5312C22.5 12.5312 23.3438 12.9062 23.9688 13.5625C24.6875 13.4062 25.4062 13.125 26.0312 12.75C25.7812 13.5312 25.2812 14.1562 24.5938 14.5625C25.25 14.5 25.9062 14.3125 26.4688 14.0625C26.0312 14.7188 25.4688 15.2812 24.8438 15.75Z" fill="#C9CFD6"/>
</svg>
