<svg width="37" height="37" viewBox="0 0 37 37" fill="none" xmlns="http://www.w3.org/2000/svg">
<circle cx="18.5" cy="18.5" r="18" stroke="#C9CFD6"/>
<path d="M26.5312 14.6875C26.2812 15.75 24.0312 18.9375 24.0312 18.9375C23.8438 19.25 23.75 19.4062 24.0312 19.75C24.1562 19.9062 26.5 22.1562 26.8438 23.2188C27 23.75 26.75 24 26.2188 24H24.375C23.6875 24 23.4688 23.4688 22.2188 22.2188C21.125 21.1562 20.6562 21 20.375 21C19.8125 21 19.9062 21.2188 19.9062 23.3125C19.9062 23.75 19.75 24 18.5938 24C16.6562 24 14.5 22.8438 12.9688 20.6562C10.6875 17.4375 10.0625 15.0312 10.0625 14.5312C10.0625 14.25 10.1875 14 10.6875 14H12.5312C13 14 13.1875 14.2188 13.375 14.7188C14.2812 17.3438 15.7812 19.6562 16.4062 19.6562C16.6562 19.6562 16.75 19.5312 16.75 18.9375V16.2188C16.6875 14.9688 16.0312 14.875 16.0312 14.4375C16.0312 14.2188 16.1875 14 16.5 14H19.375C19.7812 14 19.9062 14.2188 19.9062 14.6875V18.3438C19.9062 18.7188 20.0938 18.875 20.1875 18.875C20.4375 18.875 20.625 18.7188 21.0625 18.3125C22.375 16.8125 23.3125 14.5312 23.3125 14.5312C23.4375 14.25 23.6562 14 24.125 14H25.9688C26.5312 14 26.625 14.3125 26.5312 14.6875Z" fill="#C9CFD6"/>
</svg>
