<svg width="60" height="60" viewBox="0 0 60 60" fill="none" xmlns="http://www.w3.org/2000/svg">
<circle cx="30" cy="30" r="29.5" stroke="white"/>
<path d="M42.0469 24.5312C41.6719 26.125 38.2969 30.9062 38.2969 30.9062C38.0156 31.375 37.875 31.6094 38.2969 32.125C38.4844 32.3594 42 35.7344 42.5156 37.3281C42.75 38.125 42.375 38.5 41.5781 38.5H38.8125C37.7812 38.5 37.4531 37.7031 35.5781 35.8281C33.9375 34.2344 33.2344 34 32.8125 34C31.9688 34 32.1094 34.3281 32.1094 37.4688C32.1094 38.125 31.875 38.5 30.1406 38.5C27.2344 38.5 24 36.7656 21.7031 33.4844C18.2812 28.6562 17.3438 25.0469 17.3438 24.2969C17.3438 23.875 17.5312 23.5 18.2812 23.5H21.0469C21.75 23.5 22.0312 23.8281 22.3125 24.5781C23.6719 28.5156 25.9219 31.9844 26.8594 31.9844C27.2344 31.9844 27.375 31.7969 27.375 30.9062V26.8281C27.2812 24.9531 26.2969 24.8125 26.2969 24.1562C26.2969 23.8281 26.5312 23.5 27 23.5H31.3125C31.9219 23.5 32.1094 23.8281 32.1094 24.5312V30.0156C32.1094 30.5781 32.3906 30.8125 32.5312 30.8125C32.9062 30.8125 33.1875 30.5781 33.8438 29.9688C35.8125 27.7188 37.2188 24.2969 37.2188 24.2969C37.4062 23.875 37.7344 23.5 38.4375 23.5H41.2031C42.0469 23.5 42.1875 23.9688 42.0469 24.5312Z" fill="white"/>
</svg>
